<svg width="34" height="34" viewBox="0 0 34 34" fill="none" xmlns="http://www.w3.org/2000/svg">
<g clip-path="url(#clip0_2832_23131)">
<path d="M29.0983 7.40917L27.1292 5.02917C26.7467 4.5475 26.1658 4.25 25.5 4.25H8.5C7.83417 4.25 7.25333 4.5475 6.85667 5.02917L4.90167 7.40917C4.49083 7.89083 4.25 8.52833 4.25 9.20833V26.9167C4.25 28.475 5.525 29.75 7.08333 29.75H26.9167C28.475 29.75 29.75 28.475 29.75 26.9167V9.20833C29.75 8.52833 29.5092 7.89083 29.0983 7.40917ZM17 24.7917L9.20833 17H14.1667V14.1667H19.8333V17H24.7917L17 24.7917ZM7.25333 7.08333L8.40083 5.66667H25.4008L26.7325 7.08333H7.25333Z" fill="black" fill-opacity="0.54"/>
</g>
<defs>
<clipPath id="clip0_2832_23131">
<rect width="34" height="34" fill="white"/>
</clipPath>
</defs>
</svg>
